<?xml version="1.0" encoding="UTF-8"?>
<svg id="Capa_2" data-name="Capa 2" xmlns="http://www.w3.org/2000/svg" viewBox="0 0 150.83 227.43">
  <defs>
    <style>
      .cls-1 {
        fill: #ff9e18;
      }
    </style>
  </defs>
  <g id="Layer_1" data-name="Layer 1">
    <g>
      <path class="cls-1" d="m85.41,112.09s9.6,13.54,24.71,15.9c1.7.29,3.4.58,5.09.86,10.73,1.46,22.54,2.68,35.13,3.38,1.17-10.6,4.78-67.54-54.9-96.3C39.77,9.1,28.27,0,28.27,0c0,0,3.84,22.34,52.73,49.13,0,0-46.91-9.31-53.15-22.46,0,0-5.66,26.79,61.7,43.75,0,0-32.52,5.51-55.98-12.03,0,0,2.77,25.23,65.56,32.59,0,0-18.38,6.25-52.92-5.65,0,0,15.28,20.21,70.83,26.12,0,0-9.41,3.34-31.64.64Z"/>
      <path class="cls-1" d="m108.59,138.17c-8.74,8.73-14.51,20.22-42.12,11.64-2.39-.74-9.87,2.59-12.01,11.53-4.84,20.21-20.24,34.7-54.46,37.12,0,0,31.82,28.35,72.35-14.2,0,0-5.67,27.95-38.94,33.66,42.16,19.33,58.19-32.29,58.19-32.29,0,0,6.66,23.46-22.35,41.8,42.47,0,41.59-47.58,41.59-47.58,0,0,8.22,18.4-3.38,37.28,12.38-6.59,22.05-21.96,15.09-46.34,0,0,12.96,5.93,4.84,30.53,0,0,15.74-19.43,21.93-58.38-14.78-.97-28.5-2.71-40.71-4.77Z"/>
    </g>
  </g>
</svg>